<svg id="Layer_1" data-name="Layer 1" xmlns="http://www.w3.org/2000/svg" viewBox="0 0 1000 678.8"><defs><style>.cls-1{fill:#fff;}</style></defs><path class="cls-1" d="M666.45,380.56H542.89V284.2H666.45ZM646.54,158.69H604.67v41.87h41.87ZM666.7,56H610.23v56.47H666.7Zm-63.83,158.7h-43.4V284.2h43.4Zm-43.4,304.8H423.08V657.77H559.47Zm193.87-407H666.7v88.07h86.64ZM650.19,427.31H559.47v92.21h90.72Zm271,16.58c54.91-61.82,56.69-133.55,56.62-151.54,0-1.29,0-3-.07-5.17-1.22-48.27-19.22-116.26-73.7-166.39-52.22-48-112.66-56.4-134.18-58.34H724.48v50l28.86,88.07c8.27.75,40.34,4.64,64.91,31.74,5.76,6.37,26.13,28.83,24.59,61.76-1.58,33.72-25,54.46-32.6,61.19-23.49,20.81-49.92,24.45-59.62,25.31h-139v139h139C764.87,519.53,855.31,518.07,921.18,443.89Z"/><path class="cls-1" d="M265.82,297.49H169.74V201.42h96.08Zm-78.92-211H120v66.91H186.9Zm-71.2,109.8H48.79v66.91H115.7Zm32.17,129.1H64.66v83.21h83.21ZM278.94,21h-43.4V64.42h43.4ZM158.59,450.18H22.2V657.77H158.59ZM352.46,112.49H265.82v88.07h86.64ZM249.31,427.31H158.59v92.21h90.72Zm271,16.58c54.91-61.82,56.69-133.55,56.62-151.54,0-1.29,0-3-.08-5.17-1.21-48.27-19.21-116.26-73.7-166.39-52.21-48-112.65-56.4-134.17-58.34H323.6v50l28.86,88.07c8.27.75,40.34,4.64,64.9,31.74,5.77,6.37,26.13,28.83,24.59,61.76-1.57,33.72-25,54.46-32.59,61.19-23.49,20.81-49.93,24.45-59.62,25.31h-139v139h139C364,519.53,454.42,518.07,520.3,443.89Z"/></svg>